<?xml version="1.0" standalone="no"?><!DOCTYPE svg PUBLIC "-//W3C//DTD SVG 1.1//EN" "http://www.w3.org/Graphics/SVG/1.1/DTD/svg11.dtd"><svg t="1760524735934" class="icon" viewBox="0 0 1024 1024" version="1.1" xmlns="http://www.w3.org/2000/svg" p-id="15019" xmlns:xlink="http://www.w3.org/1999/xlink" width="256" height="256"><path d="M663.893333 590.506667H360.106667c-23.893333 0-44.373333-18.773333-44.373334-44.373334V290.133333c0-13.653333 11.946667-25.6 25.6-25.6h343.04c13.653333 0 25.6 11.946667 25.6 25.6v256c0 23.893333-20.48 44.373333-46.08 44.373334z m-298.666666-51.2h291.84v-221.866667H365.226667v221.866667z" fill="#FFA500" p-id="15020"></path><path d="M684.373333 315.733333H339.626667c-10.24 0-18.773333-5.12-22.186667-13.653333-5.12-8.533333-3.413333-18.773333 3.413333-27.306667l54.613334-68.266666c5.12-6.826667 11.946667-10.24 20.48-10.24H631.466667c8.533333 0 15.36 3.413333 20.48 10.24l54.613333 68.266666c6.826667 8.533333 6.826667 18.773333 3.413333 27.306667-6.826667 8.533333-17.066667 13.653333-25.6 13.653333z m-291.84-51.2h238.933334l-13.653334-17.066666H406.186667l-13.653334 17.066666zM512 452.266667c-44.373333 0-80.213333-35.84-80.213333-78.506667 0-13.653333 11.946667-25.6 25.6-25.6s25.6 11.946667 25.6 25.6c0 15.36 13.653333 27.306667 29.013333 27.306667s29.013333-11.946667 29.013333-27.306667c0-13.653333 11.946667-25.6 25.6-25.6s25.6 11.946667 25.6 25.6c0 42.666667-35.84 78.506667-80.213333 78.506667z" fill="#FFA500" p-id="15021"></path><path d="M836.266667 989.866667H187.733333c-51.2 0-93.866667-42.666667-93.866666-93.866667v-768C93.866667 76.8 136.533333 34.133333 187.733333 34.133333h648.533334c51.2 0 93.866667 42.666667 93.866666 93.866667v768c0 51.2-42.666667 93.866667-93.866666 93.866667zM187.733333 85.333333C163.84 85.333333 145.066667 104.106667 145.066667 128v768c0 23.893333 18.773333 42.666667 42.666666 42.666667h648.533334c23.893333 0 42.666667-18.773333 42.666666-42.666667v-768C878.933333 104.106667 860.16 85.333333 836.266667 85.333333H187.733333z" fill="#FFA500" p-id="15022"></path><path d="M699.733333 728.746667H324.266667c-13.653333 0-25.6-11.946667-25.6-25.6s11.946667-25.6 25.6-25.6h375.466666c13.653333 0 25.6 11.946667 25.6 25.6s-11.946667 25.6-25.6 25.6zM699.733333 836.266667H324.266667c-13.653333 0-25.6-11.946667-25.6-25.6S310.613333 785.066667 324.266667 785.066667h375.466666c13.653333 0 25.6 11.946667 25.6 25.6S713.386667 836.266667 699.733333 836.266667z" fill="#FFA500" p-id="15023"></path></svg>