<svg width="24" height="24" viewBox="0 0 24 24" fill="none" xmlns="http://www.w3.org/2000/svg">
  <path d="M12 4C13.1046 4 14 4.89543 14 6C14 7.10457 13.1046 8 12 8C10.8954 8 10 7.10457 10 6C10 4.89543 10.8954 4 12 4Z" stroke="currentColor" stroke-width="1.5" stroke-linecap="round" stroke-linejoin="round"/>
  <path d="M12 10C14.7614 10 17 11.7909 17 14V15H7V14C7 11.7909 9.23858 10 12 10Z" stroke="currentColor" stroke-width="1.5" stroke-linecap="round" stroke-linejoin="round"/>
  <path d="M17 8L18.5 6.5M18.5 6.5L20 5M18.5 6.5L20 8M18.5 6.5L17 5" stroke="currentColor" stroke-width="1.5" stroke-linecap="round" stroke-linejoin="round"/>
  <path d="M7 17H17V19C17 19.5523 16.5523 20 16 20H8C7.44772 20 7 19.5523 7 19V17Z" stroke="currentColor" stroke-width="1.5" stroke-linecap="round" stroke-linejoin="round"/>
</svg>
