<svg version="1.1" id="Layer_1" xmlns="http://www.w3.org/2000/svg" xmlns:xlink="http://www.w3.org/1999/xlink" x="0px" y="0px"
	 width="100%" viewBox="0 0 121 131" enable-background="new 0 0 121 131" xml:space="preserve">
<path fill="#FEFDFD" opacity="1.000000" stroke="none" 
	d="
M72.000000,132.000000 
	C48.000000,132.000000 24.500000,132.000000 1.000000,132.000000 
	C1.000000,88.333336 1.000000,44.666668 1.000000,1.000000 
	C41.333332,1.000000 81.666664,1.000000 122.000000,1.000000 
	C122.000000,44.666668 122.000000,88.333336 122.000000,132.000000 
	C105.500000,132.000000 89.000000,132.000000 72.000000,132.000000 
M76.427025,51.398838 
	C76.427025,51.398838 76.408791,51.507526 75.295769,51.049740 
	C74.909431,50.941685 74.523094,50.833633 74.146561,49.876377 
	C75.388496,43.586823 76.651276,37.301289 77.866104,31.006500 
	C78.928558,25.501263 77.438896,21.516171 71.785095,19.205711 
	C67.973831,17.648214 64.639191,14.956146 60.897732,13.179295 
	C59.544697,12.536724 57.293415,12.475934 56.022186,13.179648 
	C46.569672,18.412287 37.212757,23.824785 27.962976,29.408035 
	C26.711544,30.163410 25.428368,32.227058 25.503122,33.612446 
	C26.466640,51.468472 33.267815,66.699409 46.642700,79.342545 
	C49.614120,77.396782 52.463146,75.531158 55.650421,73.444046 
	C54.076439,71.774590 52.873272,70.441887 51.610447,69.168327 
	C44.130131,61.624443 39.690052,52.474545 37.239597,42.239204 
	C36.382965,38.661129 36.711910,36.015503 40.647507,34.214458 
	C45.163990,32.147591 49.362328,29.377752 53.669270,26.862600 
	C60.244255,23.022968 69.037567,27.484348 69.763870,35.221161 
	C70.648621,44.645756 70.159607,53.942772 65.890816,63.351933 
	C65.944397,64.606689 65.997978,65.861450 65.948601,67.795624 
	C60.647400,72.582077 55.346203,77.368523 49.952568,82.238434 
	C50.973675,83.028938 52.391659,83.920601 53.557571,85.068321 
	C56.926270,88.384460 59.940456,87.748528 63.491570,85.051399 
	C80.336601,72.257347 90.089989,55.656544 91.233101,34.345291 
	C91.310715,32.898365 90.924660,30.794235 89.948936,30.046267 
	C87.411400,28.101034 84.425171,26.741133 81.908356,25.312529 
	C80.175293,33.885975 78.546211,41.945080 76.508369,50.316860 
	C76.479202,50.640839 76.450043,50.964821 76.427025,51.398838 
M59.118153,107.406410 
	C59.118153,104.608459 59.118153,101.810501 59.118153,99.012550 
	C58.554325,99.021484 57.990494,99.030426 57.426666,99.039360 
	C56.975803,101.775398 56.524940,104.511429 56.074078,107.247459 
	C55.533360,107.153084 54.992641,107.058708 54.451923,106.964333 
	C53.926300,104.245857 53.400681,101.527382 52.875061,98.808907 
	C52.056953,99.013397 51.238846,99.217880 50.420738,99.422371 
	C51.145741,102.616249 51.595505,105.927521 52.859589,108.891502 
	C53.076916,109.401085 56.759945,108.432610 59.118153,107.406410 
M65.234306,106.488205 
	C66.804085,107.632439 68.373871,108.776680 71.018219,110.704178 
	C69.883148,107.792633 68.579849,106.160866 68.859619,104.873001 
	C70.117722,99.081627 69.437584,98.333527 63.402458,99.563126 
	C63.402458,102.940170 63.402458,106.243408 63.402458,109.546646 
	C63.706799,109.577591 64.011139,109.608543 64.315483,109.639496 
	C64.572739,108.817024 64.829994,107.994560 65.234306,106.488205 
M36.306988,99.451439 
	C34.416447,99.276451 32.525902,99.101471 30.442060,98.908600 
	C30.442060,102.707527 30.442060,105.950264 30.442060,109.737785 
	C32.660702,109.557098 34.541340,109.403931 36.421974,109.250771 
	C36.444603,108.856636 36.467236,108.462509 36.489868,108.068382 
	C35.337635,107.542061 34.185406,107.015747 32.669773,106.323441 
	C34.252022,105.394325 35.329296,104.761742 36.920094,103.827599 
	C35.158268,103.135406 34.106312,102.722107 32.614288,102.135918 
	C34.283852,101.292290 35.358963,100.749039 36.306988,99.451439 
M41.075077,100.329514 
	C38.199429,103.389977 38.506561,106.361679 41.787079,108.714386 
	C43.914555,110.240166 46.386250,110.745941 48.018379,108.406853 
	C45.721718,106.902588 43.910580,105.716331 42.099445,104.530083 
	C43.933910,103.018898 45.768379,101.507713 48.721638,99.074905 
	C45.866238,99.398422 43.793949,99.633209 41.075077,100.329514 
M22.875641,98.975311 
	C16.324669,102.566040 23.576563,104.255219 24.231106,106.925629 
	C22.636902,107.040596 21.316452,107.135811 19.996002,107.231033 
	C19.921406,107.727325 19.846811,108.223618 19.772217,108.719910 
	C21.434826,108.997963 23.544466,110.067902 24.686245,109.423363 
	C31.251926,105.716919 24.693975,104.162407 22.936472,101.724358 
	C24.363548,101.284126 25.557281,100.915886 28.206139,100.098755 
	C25.694342,99.432228 24.667709,99.159798 22.875641,98.975311 
M97.081230,99.030693 
	C95.767143,99.699753 94.453049,100.368813 93.020248,101.098312 
	C91.951988,100.498032 90.510056,99.687790 88.762802,98.705971 
	C90.343758,102.803528 91.637283,106.156120 92.923080,109.488678 
	C94.535988,106.117928 96.149002,102.746925 97.081230,99.030693 
M86.265060,99.512726 
	C83.872139,99.327682 81.479210,99.142639 79.784004,99.011551 
	C80.781158,103.185516 81.569923,106.487198 82.358696,109.788879 
	C82.929237,109.708221 83.499786,109.627556 84.070335,109.546898 
	C84.070335,107.693230 83.787651,105.779724 84.163246,104.005569 
	C84.444145,102.678688 85.573906,101.531502 86.265060,99.512726 
z"/>
<path fill="#ED4B29" opacity="1.000000" stroke="none" 
	d="
M66.125854,62.742950 
	C70.159607,53.942772 70.648621,44.645756 69.763870,35.221161 
	C69.037567,27.484348 60.244255,23.022968 53.669270,26.862600 
	C49.362328,29.377752 45.163990,32.147591 40.647507,34.214458 
	C36.711910,36.015503 36.382965,38.661129 37.239597,42.239204 
	C39.690052,52.474545 44.130131,61.624443 51.610447,69.168327 
	C52.873272,70.441887 54.076439,71.774590 55.650421,73.444046 
	C52.463146,75.531158 49.614120,77.396782 46.642700,79.342545 
	C33.267815,66.699409 26.466640,51.468472 25.503122,33.612446 
	C25.428368,32.227058 26.711544,30.163410 27.962976,29.408035 
	C37.212757,23.824785 46.569672,18.412287 56.022186,13.179648 
	C57.293415,12.475934 59.544697,12.536724 60.897732,13.179295 
	C64.639191,14.956146 67.973831,17.648214 71.785095,19.205711 
	C77.438896,21.516171 78.928558,25.501263 77.866104,31.006500 
	C76.651276,37.301289 75.388496,43.586823 73.940125,50.543392 
	C71.197746,55.054588 68.661804,58.898769 66.125854,62.742950 
z"/>
<path fill="#3970BF" opacity="1.000000" stroke="none" 
	d="
M76.917122,50.004185 
	C78.546211,41.945080 80.175293,33.885975 81.908356,25.312529 
	C84.425171,26.741133 87.411400,28.101034 89.948936,30.046267 
	C90.924660,30.794235 91.310715,32.898365 91.233101,34.345291 
	C90.089989,55.656544 80.336601,72.257347 63.491570,85.051399 
	C59.940456,87.748528 56.926270,88.384460 53.557571,85.068321 
	C52.391659,83.920601 50.973675,83.028938 49.952568,82.238434 
	C55.346203,77.368523 60.647400,72.582077 66.336105,67.374268 
	C69.952003,61.804447 73.180397,56.655987 76.408791,51.507526 
	C76.408791,51.507526 76.427025,51.398838 76.618347,51.190853 
	C76.957039,50.668922 76.992859,50.342697 76.917122,50.004185 
z"/>
<path fill="#3B3B3B" opacity="1.000000" stroke="none" 
	d="
M58.980095,107.776657 
	C56.759945,108.432610 53.076916,109.401085 52.859589,108.891502 
	C51.595505,105.927521 51.145741,102.616249 50.420738,99.422371 
	C51.238846,99.217880 52.056953,99.013397 52.875061,98.808907 
	C53.400681,101.527382 53.926300,104.245857 54.451923,106.964333 
	C54.992641,107.058708 55.533360,107.153084 56.074078,107.247459 
	C56.524940,104.511429 56.975803,101.775398 57.426666,99.039360 
	C57.990494,99.030426 58.554325,99.021484 59.118153,99.012550 
	C59.118153,101.810501 59.118153,104.608459 58.980095,107.776657 
z"/>
<path fill="#353535" opacity="1.000000" stroke="none" 
	d="
M65.160782,106.830147 
	C64.829994,107.994560 64.572739,108.817024 64.315483,109.639496 
	C64.011139,109.608543 63.706799,109.577591 63.402458,109.546646 
	C63.402458,106.243408 63.402458,102.940170 63.402458,99.563126 
	C69.437584,98.333527 70.117722,99.081627 68.859619,104.873001 
	C68.579849,106.160866 69.883148,107.792633 71.018219,110.704178 
	C68.373871,108.776680 66.804085,107.632439 65.160782,106.830147 
z"/>
<path fill="#484848" opacity="1.000000" stroke="none" 
	d="
M36.370529,99.828613 
	C35.358963,100.749039 34.283852,101.292290 32.614288,102.135918 
	C34.106312,102.722107 35.158268,103.135406 36.920094,103.827599 
	C35.329296,104.761742 34.252022,105.394325 32.669773,106.323441 
	C34.185406,107.015747 35.337635,107.542061 36.489868,108.068382 
	C36.467236,108.462509 36.444603,108.856636 36.421974,109.250771 
	C34.541340,109.403931 32.660702,109.557098 30.442060,109.737785 
	C30.442060,105.950264 30.442060,102.707527 30.442060,98.908600 
	C32.525902,99.101471 34.416447,99.276451 36.370529,99.828613 
z"/>
<path fill="#404040" opacity="1.000000" stroke="none" 
	d="
M41.398369,100.098755 
	C43.793949,99.633209 45.866238,99.398422 48.721638,99.074905 
	C45.768379,101.507713 43.933910,103.018898 42.099442,104.530075 
	C43.910580,105.716331 45.721718,106.902588 48.018379,108.406853 
	C46.386250,110.745941 43.914555,110.240166 41.787079,108.714386 
	C38.506561,106.361679 38.199429,103.389977 41.398369,100.098755 
z"/>
<path fill="#373737" opacity="1.000000" stroke="none" 
	d="
M23.258358,98.931343 
	C24.667709,99.159798 25.694342,99.432228 28.206139,100.098755 
	C25.557281,100.915886 24.363548,101.284126 22.936472,101.724358 
	C24.693975,104.162407 31.251926,105.716919 24.686245,109.423363 
	C23.544466,110.067902 21.434826,108.997963 19.772217,108.719910 
	C19.846811,108.223618 19.921406,107.727325 19.996002,107.231033 
	C21.316452,107.135811 22.636902,107.040596 24.231106,106.925629 
	C23.576563,104.255219 16.324669,102.566040 23.258358,98.931343 
z"/>
<path fill="#3B3B3B" opacity="1.000000" stroke="none" 
	d="
M97.421631,99.203308 
	C96.149002,102.746925 94.535988,106.117928 92.923080,109.488678 
	C91.637283,106.156120 90.343758,102.803528 88.762802,98.705971 
	C90.510056,99.687790 91.951988,100.498032 93.020248,101.098312 
	C94.453049,100.368813 95.767143,99.699753 97.421631,99.203308 
z"/>
<path fill="#F3F0EF" opacity="1.000000" stroke="none" 
	d="
M75.852280,51.278633 
	C73.180397,56.655987 69.952003,61.804447 66.387589,67.034561 
	C65.997978,65.861450 65.944397,64.606689 66.008339,63.047443 
	C68.661804,58.898769 71.197746,55.054588 73.935226,50.967995 
	C74.523094,50.833633 74.909431,50.941685 75.852280,51.278633 
z"/>
<path fill="#424242" opacity="1.000000" stroke="none" 
	d="
M86.295380,99.908508 
	C85.573906,101.531502 84.444145,102.678688 84.163246,104.005569 
	C83.787651,105.779724 84.070335,107.693230 84.070335,109.546898 
	C83.499786,109.627556 82.929237,109.708221 82.358696,109.788879 
	C81.569923,106.487198 80.781158,103.185516 79.784004,99.011551 
	C81.479210,99.142639 83.872139,99.327682 86.295380,99.908508 
z"/>
<path fill="#F3F0EF" opacity="1.000000" stroke="none" 
	d="
M76.712746,50.160522 
	C76.992859,50.342697 76.957039,50.668922 76.615273,51.135834 
	C76.450043,50.964821 76.479202,50.640839 76.712746,50.160522 
z"/>
</svg>