<?xml version="1.0" standalone="no"?><!DOCTYPE svg PUBLIC "-//W3C//DTD SVG 1.1//EN" "http://www.w3.org/Graphics/SVG/1.1/DTD/svg11.dtd"><svg t="1758194232812" class="icon" viewBox="0 0 1024 1024" version="1.1" xmlns="http://www.w3.org/2000/svg" p-id="64515" xmlns:xlink="http://www.w3.org/1999/xlink" width="128" height="128"><path d="M379.328 544H260.544a32.192 32.192 0 1 1 0-64h118.784a32.192 32.192 0 1 1 0 64zM896 448a29.6 29.6 0 0 1-32-32v-32H128v416a72.416 72.416 0 0 0 64 64h192c19.808 0 32 4.128 32 38.208A35.2 35.2 0 0 1 384 928H192a129.568 129.568 0 0 1-128-128V229.248A134.4 134.4 0 0 1 192 96h64v-26.464A35.2 35.2 0 0 1 288 32a35.2 35.2 0 0 1 32 37.6V96h351.552v-26.464a32.672 32.672 0 1 1 64.576 0V96h64a129.568 129.568 0 0 1 128 128v192A29.6 29.6 0 0 1 896 448z m-32-224a72.416 72.416 0 0 0-64-64h-64v58.368a32.672 32.672 0 1 1-64.576 0V160H319.744v58.368A35.2 35.2 0 0 1 288 256a35.2 35.2 0 0 1-32-37.632V160H192a72.416 72.416 0 0 0-64 64v96h736V224z m-160 256.448a255.744 255.744 0 1 1-256 255.712 256.192 256.192 0 0 1 256-255.712zM704.416 928a192 192 0 1 0-192-192 192.16 192.16 0 0 0 192 192zM704 608a35.808 35.808 0 0 1 32.288 38.4v89.088H800a32.288 32.288 0 0 1 0 64.576h-95.84A32.192 32.192 0 0 1 672 768c0-0.64 0.32-1.152 0.352-1.76a42.208 42.208 0 0 1-0.8-4.736V646.4A35.808 35.808 0 0 1 704 608z" fill="#9C27B0" p-id="64516"></path></svg>